<svg xmlns="http://www.w3.org/2000/svg" viewBox="0 0 100 100">
  <g fill="none" stroke="#111111" stroke-width="5" stroke-linecap="round" stroke-linejoin="round">
    <!-- Document with folded corner -->
    <path d="M28 14 h26 l18 18 v50 a6 6 0 0 1 -6 6 H28 a6 6 0 0 1 -6 -6 V20 a6 6 0 0 1 6 -6 Z" />
    <path d="M54 14 v18 h18" />
    <!-- Text lines -->
    <path d="M32 48 h26" />
    <path d="M32 58 h26" />
    <path d="M32 68 h14" />
    <!-- AI sparkle -->
    <path d="M62 60 l2.4 6.6 6.6 2.4 -6.6 2.4 -2.4 6.6 -2.4 -6.6 -6.6 -2.4 6.6 -2.4 Z" fill="#111111" stroke="none" />
    <path d="M84 44 l1.6 4.4 4.4 1.6 -4.4 1.6 -1.6 4.4 -1.6 -4.4 -4.4 -1.6 4.4 -1.6 Z" fill="#111111" stroke="none" />
  </g>
</svg>
